<?xml version="1.0" encoding="utf-8"?>
<!-- Generator: Adobe Illustrator 21.0.0, SVG Export Plug-In . SVG Version: 6.00 Build 0)  -->
<svg version="1.1" id="Layer_1" xmlns="http://www.w3.org/2000/svg" xmlns:xlink="http://www.w3.org/1999/xlink" x="0px" y="0px"
	 viewBox="0 0 400 400" xml:space="preserve">
<style type="text/css">
	.st0{fill:#D5A353;}
	.st1{fill:#FFFFFF;}
</style>
<g>
	<g>
		<path class="st0" d="M243.6,0.3C108.4,6.7,1.7,119.3,2.1,254.7c0.1,41.2,10.1,80.1,27.6,114.5l-27,130.9
			c-1.5,7.1,4.9,13.3,12,11.6l128.2-30.4c32.9,16.4,69.9,25.9,109.1,26.5c138.2,2.1,253.4-107.6,257.8-245.8
			C514.4,114,392.2-6.8,243.6,0.3z M396.6,394.5c-37.6,37.6-87.5,58.2-140.6,58.2c-31.1,0-60.9-7-88.5-20.7l-17.9-8.9L71,441.8
			l16.5-80.3l-8.8-17.2c-14.3-28.1-21.6-58.5-21.6-90.3c0-53.1,20.7-103,58.2-140.6c37.2-37.2,88-58.2,140.6-58.2
			c53.1,0,103,20.7,140.6,58.2c37.6,37.6,58.2,87.5,58.2,140.6C454.8,306.6,433.8,357.3,396.6,394.5z"/>
		<path class="st1" d="M379.2,309l-49.2-14.1c-6.5-1.9-13.4,0-18.1,4.8l-12,12.3c-5.1,5.2-12.8,6.8-19.5,4.1
			c-23.3-9.4-72.2-52.9-84.7-74.7c-3.6-6.3-3-14.1,1.4-19.9l10.5-13.6c4.1-5.3,5-12.5,2.3-18.6l-20.7-46.8
			c-5-11.2-19.3-14.5-28.6-6.6c-13.7,11.6-30,29.3-32,48.8c-3.5,34.5,11.3,77.9,67.2,130.1C260.3,375,312,383,345.7,374.8
			c19.1-4.6,34.4-23.2,44-38.3C396.2,326.1,391,312.4,379.2,309z"/>
	</g>
</g>
</svg>
